<svg xmlns="http://www.w3.org/2000/svg" version="1.1" xmlns:xlink="http://www.w3.org/1999/xlink" xmlns:svgjs="http://svgjs.dev/svgjs" width="1000" height="1000" viewBox="0 0 1000 1000"><rect width="1000" height="1000" fill="#000000"></rect><g transform="matrix(0.7,0,0,0.7,149.57576726602895,282.1265587044535)"><svg viewBox="0 0 396 247" data-background-color="#fbeaab" preserveAspectRatio="xMidYMid meet" height="623" width="1000" xmlns="http://www.w3.org/2000/svg" xmlns:xlink="http://www.w3.org/1999/xlink"><g id="tight-bounds" transform="matrix(1,0,0,1,0.23999451807503647,-0.09999999999999432)"><svg viewBox="0 0 395.52 247.2" height="247.2" width="395.52"><g><svg></svg></g><g><svg viewBox="0 0 395.52 247.2" height="247.2" width="395.52"><g><g><path xmlns="http://www.w3.org/2000/svg" d="M300.947 247.2h-206.374v-5.993l31.462-15.356v-36.655h46.818v37.404h95.134l19.237-37.404 13.723 0zM126.035 21.349l-31.462-15.356v-5.993h195.887l0 58.004-9.964 0-21.872-37.404h-85.771l0 37.404-46.818 0z" fill="#454545" fill-rule="nonzero" stroke="none" stroke-width="1" stroke-linecap="butt" stroke-linejoin="miter" stroke-miterlimit="10" stroke-dasharray="" stroke-dashoffset="0" font-family="none" font-weight="none" font-size="none" text-anchor="none" style="mix-blend-mode: normal" data-fill-palette-color="tertiary"></path></g></g><g transform="matrix(1,0,0,1,0,68.80501358825848)"><svg viewBox="0 0 395.52 109.58997282348302" height="109.58997282348302" width="395.52"><g><svg viewBox="0 0 591.8234956317506 163.98139361494304" height="109.58997282348302" width="395.52"><g transform="matrix(1,0,0,1,196.30349563175062,47.76220469390685)"><svg viewBox="0 0 395.52 68.45698422712934" height="68.45698422712934" width="395.52"><g id="textblocktransform"><svg viewBox="0 0 395.52 68.45698422712934" height="68.45698422712934" width="395.52" id="textblock"><g><svg viewBox="0 0 395.52 68.45698422712934" height="68.45698422712934" width="395.52"><g transform="matrix(1,0,0,1,0,0)"><svg width="395.52" viewBox="2.5999999046325684 -33.5 237.739990234375 41.150001525878906" height="68.45698422712934" data-palette-color="#454545"><path d="M30.15 0L2.6 0 2.6-0.8 6.8-2.85 6.8-30.15 2.6-32.2 2.6-33 28.75-33 28.75-24.35 27.95-24.35 24.5-30.25 13.05-30.25 13.05-18.4 21.1-18.4 23.8-22.65 24.6-22.65 24.6-11.5 23.8-11.5 21.1-15.65 13.05-15.65 13.05-2.75 25.75-2.75 29.35-9.75 30.15-9.75 30.15 0ZM49 0L35.9 0 35.9-0.8 40.05-2.85 40.05-30.1 35.95-32.2 35.95-33 44.55-33 63.85-10.2 63.85-30.25 58.45-32.2 58.45-33 71.45-33 71.45-32.2 67.35-30.2 67.35 0.25 64.75 0.25 43.55-24.65 43.55-2.8 49-0.8 49 0ZM90.7 0L76.5 0 76.5-0.8 80.7-2.85 80.7-30.15 76.5-32.2 76.5-33 91.9-33Q97.15-33 100.17-30.83 103.2-28.65 103.2-24.85L103.2-24.85Q103.2-22.05 101.32-19.98 99.45-17.9 96.4-16.75L96.4-16.75 105.75-2.7 109.25-0.8 109.25 0 99.9 0 90.45-15.25 86.95-15.25 86.95-2.9 90.7-0.8 90.7 0ZM89.5-30.25L89.5-30.25 86.95-30.25 86.95-17.8 89.8-17.8Q92.9-17.8 94.82-19.55 96.75-21.3 96.75-24.1L96.75-24.1Q96.75-27 94.85-28.63 92.95-30.25 89.5-30.25ZM126.29 0L111.69 0 111.69-0.8 115.84-2.85 115.84-30.15 111.69-32.2 111.69-33 126.29-33 126.29-32.2 122.14-30.15 122.14-2.85 126.29-0.8 126.29 0ZM163.29 7.65L163.29 7.65Q161.14 7.65 158.79 7.08 156.44 6.5 153.59 4.93 150.74 3.35 146.99 0.4L146.99 0.4Q142.59-0.05 139.22-2.35 135.84-4.65 133.92-8.3 131.99-11.95 131.99-16.5L131.99-16.5Q131.99-20.2 133.27-23.3 134.54-26.4 136.84-28.68 139.14-30.95 142.24-32.23 145.34-33.5 148.99-33.5L148.99-33.5Q152.69-33.5 155.79-32.23 158.89-30.95 161.19-28.68 163.49-26.4 164.77-23.3 166.04-20.2 166.04-16.5L166.04-16.5Q166.04-12.55 164.57-9.28 163.09-6 160.47-3.68 157.84-1.35 154.39-0.3L154.39-0.3Q157.14 2 159.27 3.33 161.39 4.65 163.09 5.2 164.79 5.75 166.34 5.75L166.34 5.75Q167.44 5.75 168.24 5.6 169.04 5.45 169.59 5.25L169.59 5.25 169.59 6.3Q168.49 6.85 166.89 7.25 165.29 7.65 163.29 7.65ZM149.89-2.05L149.89-2.05Q152.69-2.05 154.82-3.65 156.94-5.25 158.14-8.15 159.34-11.05 159.34-15L159.34-15Q159.34-19.85 157.87-23.45 156.39-27.05 153.87-29.03 151.34-31 148.24-31L148.24-31Q145.49-31 143.32-29.43 141.14-27.85 139.89-24.95 138.64-22.05 138.64-18.1L138.64-18.1Q138.64-13.25 140.14-9.65 141.64-6.05 144.22-4.05 146.79-2.05 149.89-2.05ZM189.69 0.5L189.69 0.5Q185.59 0.5 182.44-0.9 179.29-2.3 177.49-5.4 175.69-8.5 175.69-13.6L175.69-13.6 175.69-30.15 171.49-32.2 171.49-33 186.14-33 186.14-32.2 181.99-30.15 181.99-13.9Q181.99-9.8 183.29-7.38 184.59-4.95 186.76-3.93 188.94-2.9 191.64-2.9L191.64-2.9Q193.84-2.9 195.71-3.83 197.59-4.75 198.74-6.78 199.89-8.8 199.89-12.15L199.89-12.15 199.89-30.25 195.09-32.2 195.09-33 207.54-33 207.54-32.2 203.39-30.2 203.39-13.6Q203.39-8.5 201.64-5.4 199.89-2.3 196.79-0.9 193.69 0.5 189.69 0.5ZM240.34 0L212.79 0 212.79-0.8 216.99-2.85 216.99-30.15 212.79-32.2 212.79-33 238.94-33 238.94-24.35 238.14-24.35 234.69-30.25 223.24-30.25 223.24-18.4 231.29-18.4 233.99-22.65 234.79-22.65 234.79-11.5 233.99-11.5 231.29-15.65 223.24-15.65 223.24-2.75 235.94-2.75 239.54-9.75 240.34-9.75 240.34 0Z" opacity="1" transform="matrix(1,0,0,1,0,0)" fill="#ffffff" class="undefined-text-0" data-fill-palette-color="primary" id="text-0"></path></svg></g></svg></g></svg></g></svg></g><g><svg viewBox="0 0 163.98139361494304 163.98139361494304" height="163.98139361494304" width="163.98139361494304"><g><svg></svg></g><g id="icon-0"><svg viewBox="0 0 163.98139361494304 163.98139361494304" height="163.98139361494304" width="163.98139361494304"><g><path d="M0 81.991c0-45.282 36.708-81.991 81.991-81.991 45.282 0 81.991 36.708 81.99 81.991 0 45.282-36.708 81.991-81.99 81.99-45.282 0-81.991-36.708-81.991-81.99zM81.991 157.808c41.873 0 75.817-33.945 75.817-75.817 0-41.873-33.945-75.817-75.817-75.817-41.873 0-75.817 33.945-75.817 75.817 0 41.873 33.945 75.817 75.817 75.817z" data-fill-palette-color="accent" fill="#ffffff" stroke="transparent"></path></g><g transform="matrix(1,0,0,1,43.08904892913162,37.02181161622373)"><svg viewBox="0 0 77.8032957566798 89.93777038249559" height="89.93777038249559" width="77.8032957566798"><g><svg xmlns="http://www.w3.org/2000/svg" xmlns:xlink="http://www.w3.org/1999/xlink" version="1.1" x="0" y="0" viewBox="17.299999237060547 12.199999809265137 65.39999389648438 75.60000610351562" style="enable-background:new 0 0 100 100;" xml:space="preserve" height="89.93777038249559" width="77.8032957566798" class="icon-s-0" data-fill-palette-color="accent" id="s-0"><path d="M50 12.2L17.3 31.1v37.8L50 87.8l32.7-18.9V31.1L50 12.2zM32.1 37.4L50 16l17 21.4H32.1zM67.3 39.4L50 70.4l-18.2-31H67.3zM48.1 71l-27.7-4.5 9.8-25.9L48.1 71zM68.9 40.7l10.7 25.9-27.7 4.5L68.9 40.7zM69.2 37.1L52.6 16l27 15.6L69.2 37.1zM29.8 37.1l-9.4-5.5 26.8-15.5L29.8 37.1zM28.8 38.8l-9.5 25V33.3L28.8 38.8zM49 73.2v11.7L20.9 68.7 49 73.2zM51 73.2l28.1-4.5L51 84.9V73.2zM70.3 38.8l10.5-5.6v30.9L70.3 38.8z" fill="#ffffff" data-fill-palette-color="accent"></path></svg></g></svg></g></svg></g></svg></g></svg></g></svg></g></svg></g><defs></defs></svg><rect width="395.52" height="247.2" fill="none" stroke="none" visibility="hidden"></rect></g></svg></g></svg>
